<?xml version="1.0" encoding="UTF-8"?>
<svg xmlns="http://www.w3.org/2000/svg" viewBox="0 0 16 16">
   <path
      d="M 0.99993896,8.9999674 C 0.86872157,8.9999544 0.73878291,9.0257666 0.61753337,9.0759318 0.49614861,9.126254 0.38587043,9.2000069 0.29300537,9.2929728 0.20003945,9.3858379 0.12628653,9.4961161 0.07596436,9.6175008 0.02579911,9.7387504 -1.302465e-5,9.868689 0,9.9999064 v 5.0002116 c 1.534117e-4,0.131252 0.0261413,0.261191 0.07648112,0.382406 0.05017094,0.12134 0.12374588,0.231615 0.21652425,0.324528 0.0232282,0.02319 0.0475638,0.04542 0.0728638,0.06615 0.0758829,0.06232 0.16062548,0.113154 0.25166423,0.150896 0.12124979,0.05017 0.25118794,0.07598 0.38240559,0.07596 H 6.0001506 c 0.1312176,1.3e-5 0.2611558,-0.0258 0.3824056,-0.07596 0.121385,-0.05032 0.2316627,-0.124075 0.3245279,-0.217041 0.092966,-0.09287 0.1667188,-0.203143 0.2170411,-0.324528 0.050165,-0.12125 0.075977,-0.251188 0.075964,-0.382406 -6.68e-5,-0.04373 -0.003,-0.0874 -0.00878,-0.130741 -0.00564,-0.04323 -0.014097,-0.08604 -0.025321,-0.128158 -0.011229,-0.04221 -0.025212,-0.08364 -0.041858,-0.124023 -0.016712,-0.04032 -0.036046,-0.07951 -0.057878,-0.117306 -0.021895,-0.03772 -0.046235,-0.07398 -0.072864,-0.10852 -0.026576,-0.03475 -0.055405,-0.06772 -0.0863,-0.0987 -0.030827,-0.0307 -0.063626,-0.05936 -0.098185,-0.08578 -0.034712,-0.02665 -0.071136,-0.05099 -0.1090372,-0.07286 -0.037797,-0.02183 -0.076983,-0.04117 -0.1173055,-0.05788 -0.040214,-0.01662 -0.081471,-0.03061 -0.1235067,-0.04186 -0.042279,-0.01142 -0.085263,-0.02005 -0.1286743,-0.02584 -0.043182,-0.0056 -0.086683,-0.0084 -0.1302246,-0.0083 H 3.4137451 l 3.293339,-3.293339 c 0.030877,-0.03081 0.059705,-0.06361 0.0863,-0.09818 0.026451,-0.03456 0.050619,-0.07081 0.072347,-0.108521 0.021832,-0.0378 0.041166,-0.07698 0.057878,-0.117305 0.016822,-0.04037 0.030977,-0.0818 0.042375,-0.124024 0.011225,-0.04212 0.019683,-0.08493 0.025321,-0.128157 0.00578,-0.04334 0.00872,-0.08702 0.00878,-0.1307416 -8.93e-5,-0.043553 -0.00302,-0.087054 -0.00878,-0.1302246 -0.00562,-0.04338 -0.014075,-0.086364 -0.025322,-0.1286553 C 6.954564,9.6989596 6.9404088,9.6577024 6.9236084,9.6175008 6.9068967,9.5771779 6.8875627,9.5379919 6.8657308,9.5001953 6.8440217,9.4623092 6.8198541,9.4258851 6.7933838,9.391158 6.7667896,9.3565826 6.7379612,9.3237839 6.7070841,9.2929728 6.6141729,9.2001924 6.5038979,9.1266172 6.3825562,9.0764486 6.2613425,9.0261062 6.1314025,9.0001183 6.0001506,8.9999674 5.8687246,9.0000504 5.7386025,9.0260397 5.6172282,9.0764486 5.4960707,9.1266766 5.3859759,9.2002487 5.293217,9.2929728 L 1.9998779,12.585795 V 9.9999064 c 8.2e-5,-0.043542 -0.00268,-0.087043 -0.00827,-0.1302246 C 1.9858239,9.826271 1.9771925,9.7832867 1.9657715,9.7410075 1.954521,9.6989719 1.9405385,9.657715 1.9239136,9.6175008 1.9072019,9.5771779 1.8878679,9.5379919 1.866036,9.5001953 1.8441601,9.4622946 1.8198197,9.4258702 1.7931722,9.391158 1.766578,9.3565826 1.7377496,9.3237839 1.7068726,9.2929728 1.6760615,9.2620957 1.6432628,9.2332674 1.6086873,9.2066732 1.5741418,9.1800447 1.5378905,9.1557046 1.5001668,9.1338094 1.4623702,9.1119775 1.4231842,9.0926435 1.3828613,9.0759318 1.3424789,9.0592856 1.3010487,9.0453029 1.2588379,9.0340739 1.2167164,9.0228492 1.1739056,9.0143906 1.1306803,9.0087524 1.087339,9.0029689 1.0436644,9.0000343 0.99993896,8.9999674 Z" />
   <path
      d="M 9.9999064,0 C 9.868689,-1.302465e-5 9.7387504,0.02579911 9.6175008,0.07596436 9.4961161,0.12628653 9.3858379,0.20003945 9.2929728,0.29300537 9.2000069,0.38587043 9.126254,0.49614861 9.0759318,0.61753337 9.0257666,0.73878291 8.9999544,0.86872157 8.9999674,0.99993896 8.9998866,1.1313303 9.0257,1.2614511 9.0759318,1.3828613 c 0.050382,0.1212006 0.1241314,0.2312984 0.217041,0.3240113 0.092865,0.092966 0.2031433,0.1667188 0.324528,0.217041 0.1212496,0.050165 0.2511882,0.075977 0.3824056,0.075964 H 12.586312 L 9.2929728,5.293217 c -0.092724,0.092759 -0.1662961,0.2028534 -0.2165242,0.3240112 -0.050409,0.1213746 -0.076398,0.2514962 -0.076481,0.3829224 1.509e-4,0.1312522 0.026139,0.2611916 0.076481,0.3824056 0.050169,0.1213419 0.1237436,0.2316165 0.2165242,0.3245279 0.092912,0.092781 0.2031861,0.1663556 0.324528,0.2165243 0.1212139,0.050342 0.2511534,0.07633 0.3824056,0.076481 0.1314266,-8.29e-5 0.2615476,-0.026072 0.3829226,-0.076481 0.121158,-0.050228 0.231252,-0.1237999 0.324011,-0.2165243 l 3.293339,-3.2928222 v 2.5858887 c -1.3e-5,0.1312176 0.0258,0.2611558 0.07596,0.3824056 0.05017,0.1213419 0.123744,0.2316165 0.216525,0.3245279 0.09286,0.092966 0.203143,0.1667188 0.324528,0.2170411 0.12141,0.050232 0.25153,0.076045 0.382922,0.075964 0.131218,1.3e-5 0.261156,-0.025799 0.382406,-0.075964 0.121385,-0.050322 0.231662,-0.1240749 0.324528,-0.2170411 0.09297,-0.092865 0.166718,-0.2031429 0.217041,-0.3245279 0.05017,-0.1212498 0.07598,-0.251188 0.07596,-0.3824056 V 0.99993896 c 10e-6,-0.13121713 -0.0258,-0.26115529 -0.07596,-0.38240559 -0.05032,-0.12138352 -0.124078,-0.23166127 -0.217041,-0.324528 -0.09235,-0.0923685 -0.201901,-0.1657532 -0.322461,-0.21600749 l -0.0016,-0.0010335 h -5.16e-4 -5.17e-4 C 15.260917,0.02586808 15.131161,5.7337894e-5 15.000118,0 Z" />
</svg>