<?xml version="1.0" encoding="UTF-8"?>
<svg xmlns="http://www.w3.org/2000/svg" viewBox="0 0 16 16">
   <path
      d="M 10.000061,6.1168211e-5 C 9.8688434,4.8168211e-5 9.7389047,0.02586017 9.6176552,0.07602517 c -0.1213848,0.050322 -0.2316629,0.1240751 -0.324528,0.217041 -0.092966,0.092865 -0.1667188,0.2031433 -0.217041,0.324528 -0.050165,0.1212496 -0.075977,0.2511882 -0.075964,0.3824054 V 6.0002116 c 1.534e-4,0.131252 0.026141,0.261191 0.076481,0.382406 0.050171,0.12134 0.1237458,0.231615 0.2165242,0.324528 0.023228,0.02319 0.047564,0.04542 0.072864,0.06615 0.075883,0.06232 0.1606255,0.113154 0.2516642,0.150896 0.1212498,0.05017 0.251188,0.07598 0.3824054,0.07596 h 5.000212 c 0.131217,1.3e-5 0.261156,-0.0258 0.382405,-0.07596 0.121385,-0.05032 0.231663,-0.124075 0.324528,-0.217041 0.09297,-0.09287 0.166719,-0.203143 0.217041,-0.324528 0.05016,-0.12125 0.07598,-0.251188 0.07596,-0.382406 -6.6e-5,-0.04373 -0.003,-0.0874 -0.0088,-0.130741 -0.0056,-0.04323 -0.0141,-0.08604 -0.02532,-0.128158 -0.01123,-0.04221 -0.02521,-0.08364 -0.04186,-0.124023 -0.01671,-0.04032 -0.03605,-0.07951 -0.05788,-0.117306 -0.0219,-0.03772 -0.04623,-0.07398 -0.07286,-0.10852 -0.02658,-0.03475 -0.0554,-0.06772 -0.0863,-0.0987 -0.03083,-0.0307 -0.06363,-0.05936 -0.09818,-0.08578 -0.03471,-0.02665 -0.07114,-0.05099 -0.109037,-0.07286 -0.0378,-0.02183 -0.07698,-0.04117 -0.117305,-0.05788 -0.04021,-0.01662 -0.08147,-0.03061 -0.123507,-0.04186 -0.04228,-0.01142 -0.08526,-0.02005 -0.128674,-0.02584 -0.04318,-0.0056 -0.08668,-0.0084 -0.130225,-0.0083 h -2.586392 l 3.293339,-3.293339 c 0.03088,-0.03081 0.0597,-0.06361 0.0863,-0.09818 0.02645,-0.03456 0.05062,-0.07081 0.07235,-0.108521 0.02183,-0.0378 0.04117,-0.07698 0.05788,-0.117305 0.01682,-0.04037 0.03098,-0.0818 0.04237,-0.124024 0.01122,-0.04212 0.01968,-0.08493 0.02532,-0.128157 0.0058,-0.04334 0.0087,-0.08702 0.0088,-0.13074203 -8.9e-5,-0.04355 -0.003,-0.087054 -0.0088,-0.1302244 -0.0056,-0.04338 -0.01408,-0.086364 -0.02532,-0.1286553 -0.01142,-0.042048 -0.02557,-0.083305 -0.04237,-0.1235067 -0.01671,-0.040323 -0.03605,-0.079509 -0.05788,-0.1173055 -0.02171,-0.037886 -0.04588,-0.07431 -0.07235,-0.1090373 -0.02659,-0.034575 -0.05542,-0.067374 -0.0863,-0.098185 -0.09291,-0.09278 -0.203186,-0.1663556 -0.324528,-0.2165242 C 15.261465,0.02620017 15.131525,2.1216821e-4 15.000273,6.1168211e-5 14.868847,1.4416821e-4 14.738725,0.02613317 14.61735,0.07654217 c -0.121157,0.050228 -0.231252,0.1238001 -0.324011,0.2165242 L 11,3.585889 V 0.99999997 c 8.2e-5,-0.04354 -0.0027,-0.087043 -0.0083,-0.1302244 -0.0058,-0.0434108 -0.01442,-0.0863951 -0.02584,-0.1286743 -0.01125,-0.0420356 -0.02523,-0.0832925 -0.04186,-0.1235067 -0.01671,-0.0403229 -0.03604,-0.0795089 -0.05788,-0.1173055 -0.02188,-0.0379007 -0.04622,-0.0743251 -0.07286,-0.1090373 -0.02659,-0.0345754 -0.05542,-0.0673741 -0.0863,-0.0981852 -0.03081,-0.0308771 -0.06361,-0.0597054 -0.09818,-0.0862996 -0.03455,-0.0266285 -0.0708,-0.0509686 -0.10852,-0.0728638 -0.0378,-0.0218319 -0.07698,-0.0411659 -0.117306,-0.0578776 -0.04038,-0.0166462 -0.08181,-0.0306289 -0.124023,-0.0418579 -0.04212,-0.0112247 -0.08493,-0.0196833 -0.128158,-0.0253215 -0.04334,-0.00578 -0.08702,-0.008720002 -0.130741,-0.0087800018 z" />
   <path
      d="m 0.99999997,9.0001221 c -0.1312174,-1.31e-5 -0.261156,0.025799 -0.3824056,0.075964 -0.1213847,0.050322 -0.2316629,0.1240751 -0.324528,0.217041 -0.0929659,0.092865 -0.1667188,0.2031433 -0.217041,0.324528 C 0.02586017,9.738905 4.7968211e-5,9.8688436 6.0968211e-5,10.000061 c -8.08e-5,0.131391 0.02573260179,0.261512 0.07596440179,0.382922 0.050382,0.121201 0.1241314,0.231299 0.217041,0.324012 0.092865,0.09297 0.2031433,0.166718 0.324528,0.217041 0.1212496,0.05017 0.2511882,0.07598 0.3824056,0.07596 H 3.5864056 l -3.29333923,3.293339 c -0.092724,0.09276 -0.1662961,0.202853 -0.2165242,0.324011 -0.050409,0.121375 -0.0763980018,0.251496 -0.07648100179,0.382923 1.509e-4,0.131252 0.02613900179,0.261191 0.07648100179,0.382405 0.050169,0.121342 0.1237436,0.231617 0.2165242,0.324528 0.092912,0.09278 0.2031861,0.166356 0.324528,0.216524 0.1212139,0.05034 0.2511534,0.07633 0.3824056,0.07648 0.13142663,-8.2e-5 0.26154763,-0.02607 0.38292263,-0.07648 0.121158,-0.05023 0.231252,-0.123799 0.324011,-0.216524 l 3.293339,-3.292822 v 2.585889 c -1.3e-5,0.131217 0.0258,0.261155 0.07596,0.382405 0.05017,0.121342 0.123744,0.231617 0.216525,0.324528 0.09286,0.09297 0.203143,0.166719 0.324528,0.217041 0.12141,0.05023 0.25153,0.07605 0.382922,0.07596 0.131218,1.3e-5 0.261156,-0.0258 0.382406,-0.07596 0.121385,-0.05032 0.231662,-0.124075 0.324528,-0.217041 0.09297,-0.09286 0.166718,-0.203143 0.217041,-0.324528 0.05017,-0.12125 0.07598,-0.251188 0.07596,-0.382405 v -5.000212 c 10e-6,-0.1312171 -0.0258,-0.2611553 -0.07596,-0.3824056 -0.05032,-0.1213835 -0.124078,-0.2316612 -0.217041,-0.324528 -0.09235,-0.092368 -0.201901,-0.1657532 -0.322461,-0.2160075 l -0.0016,-0.00103 h -5.16e-4 -5.17e-4 c -0.121037,-0.050096 -0.250793,-0.075907 -0.381836,-0.075964 z" />
</svg>