<?xml version="1.0" encoding="UTF-8" standalone="no"?>
<svg viewBox="0 0 20 20" xmlns="http://www.w3.org/2000/svg">
   <path
      d="M 8,0 C 7.8972069,0 7.7955844,0.00529703 7.6953125,0.015625 7.5950406,0.02595297 7.4956678,0.04041139 7.3984375,0.06054687 7.3012072,0.08068236 7.2069495,0.1072962 7.1132812,0.13671875 7.019613,0.1661413 6.9274763,0.20009209 6.8378906,0.23828125 6.7483049,0.27647041 6.6611546,0.31879905 6.5761719,0.36523438 6.4911891,0.4116697 6.4079843,0.46146398 6.328125,0.515625 6.2482657,0.56978602 6.1718717,0.62808685 6.0976562,0.68945312 6.0234408,0.7508194 5.9508636,0.81476143 5.8828125,0.8828125 5.8147614,0.95086357 5.7508194,1.0234408 5.6894531,1.0976562 5.6280869,1.1718717 5.569786,1.2482657 5.515625,1.328125 5.461464,1.4079843 5.4116697,1.4911891 5.3652344,1.5761719 5.3187991,1.6611546 5.2764704,1.7483049 5.2382812,1.8378906 5.2000921,1.9274763 5.1661413,2.019613 5.1367187,2.1132813 5.1072962,2.2069495 5.0806824,2.3012072 5.0605469,2.3984375 5.0404114,2.4956678 5.025953,2.5950406 5.015625,2.6953125 5.005297,2.7955844 5,2.8972069 5,3 V 5 H 3 C 2.8972069,5 2.7955844,5.0053 2.6953125,5.015625 2.5950406,5.025953 2.4956678,5.040411 2.3984375,5.060547 2.3012075,5.080682 2.2069495,5.107296 2.1132813,5.136719 2.0196133,5.166142 1.9274763,5.200092 1.8378906,5.2382815 1.7483046,5.2764705 1.6611546,5.3187995 1.5761719,5.3652347 1.4911891,5.4116697 1.4079843,5.461464 1.328125,5.515625 1.2482657,5.569786 1.1718717,5.6280869 1.0976562,5.6894531 1.0234408,5.7508194 0.95086357,5.8147614 0.8828125,5.8828125 0.81476143,5.9508636 0.7508194,6.0234408 0.68945312,6.0976562 0.62808685,6.1718717 0.56978602,6.2482657 0.515625,6.328125 0.46146398,6.4079843 0.4116697,6.4911891 0.36523438,6.5761719 0.31879905,6.6611546 0.27647041,6.7483049 0.23828125,6.8378906 0.20009209,6.9274763 0.1661413,7.019613 0.13671875,7.1132812 0.1072962,7.2069495 0.08068236,7.3012072 0.06054687,7.3984375 0.04041139,7.4956678 0.02595297,7.5950406 0.015625,7.6953125 0.00529703,7.7955844 0,7.8972069 0,8 v 9 c 0,0.102793 0.00529703,0.204416 0.015625,0.304687 0.01032797,0.100272 0.02478639,0.199645 0.04492187,0.296875 0.02013549,0.09723 0.04674933,0.191489 0.07617188,0.285157 0.0294225,0.09367 0.0633733,0.185805 0.1015625,0.27539 0.0381892,0.08959 0.0805178,0.176736 0.12695313,0.261719 0.0464353,0.08498 0.0962296,0.168188 0.15039062,0.248047 0.054161,0.07986 0.11246185,0.156253 0.17382812,0.230469 0.0613663,0.07422 0.12530831,0.146792 0.19335938,0.214843 0.0680511,0.06805 0.1406283,0.131994 0.2148437,0.19336 0.074215,0.06137 0.1506095,0.119667 0.2304688,0.173828 0.079859,0.05416 0.1630641,0.103955 0.2480469,0.150391 0.084983,0.04644 0.172133,0.08876 0.2617187,0.126953 0.089586,0.03819 0.1817224,0.07214 0.2753907,0.101562 0.093668,0.02942 0.1879259,0.05604 0.2851562,0.07617 0.09723,0.02014 0.1966031,0.03459 0.296875,0.04492 C 2.7955844,19.994703 2.8972069,20 3,20 h 9 c 0.102793,0 0.204416,-0.0053 0.304688,-0.01563 0.100271,-0.01033 0.199644,-0.02479 0.296875,-0.04492 0.09723,-0.02013 0.191488,-0.04675 0.285156,-0.07617 0.09367,-0.02942 0.185805,-0.06337 0.27539,-0.101562 0.08959,-0.03819 0.176736,-0.08052 0.261719,-0.126953 0.08498,-0.04644 0.168188,-0.09623 0.248047,-0.150391 0.07986,-0.05416 0.156253,-0.112462 0.230469,-0.173828 0.07422,-0.06137 0.146792,-0.125308 0.214844,-0.19336 0.06805,-0.06805 0.131993,-0.140628 0.193359,-0.214843 0.06137,-0.07422 0.119667,-0.15061 0.173828,-0.230469 0.05416,-0.07986 0.103955,-0.163064 0.150391,-0.248047 0.04643,-0.08498 0.08876,-0.172133 0.126953,-0.261719 0.03819,-0.08958 0.07214,-0.181722 0.101562,-0.27539 0.02942,-0.09367 0.05604,-0.187926 0.07617,-0.285157 0.02014,-0.09723 0.03459,-0.196603 0.04492,-0.296875 C 14.994703,17.204416 15,17.102793 15,17 v -2 h 2 c 0.102793,0 0.204416,-0.0053 0.304687,-0.01563 0.100272,-0.01033 0.199645,-0.02479 0.296875,-0.04492 0.09723,-0.02013 0.191489,-0.04675 0.285157,-0.07617 0.09367,-0.02942 0.185805,-0.06337 0.27539,-0.101562 0.08959,-0.03819 0.176736,-0.08052 0.261719,-0.126953 0.08498,-0.04644 0.168188,-0.09623 0.248047,-0.150391 0.07986,-0.05416 0.156253,-0.112462 0.230469,-0.173828 0.07422,-0.06137 0.146792,-0.125308 0.214843,-0.193359 0.06805,-0.06805 0.131994,-0.140629 0.19336,-0.214844 0.06137,-0.07422 0.119667,-0.15061 0.173828,-0.230469 0.05416,-0.07986 0.103955,-0.163064 0.150391,-0.248047 0.04644,-0.08498 0.08876,-0.172133 0.126953,-0.261719 0.03819,-0.08958 0.07214,-0.181722 0.101562,-0.27539 0.02942,-0.09367 0.05604,-0.187926 0.07617,-0.285156 0.02014,-0.09723 0.03459,-0.196604 0.04492,-0.296875 C 19.994703,12.204416 20,12.102793 20,12 V 3 C 20,2.8972069 19.9947,2.7955844 19.98437,2.6953125 19.97404,2.5950406 19.95958,2.4956678 19.93945,2.3984375 19.91932,2.3012075 19.8927,2.2069495 19.86328,2.1132813 19.833859,2.019613 19.799908,1.9274763 19.761719,1.8378906 19.72353,1.7483049 19.681201,1.6611546 19.634766,1.5761719 19.58833,1.4911891 19.538536,1.4079843 19.484375,1.328125 19.430214,1.2482657 19.371913,1.1718717 19.310547,1.0976562 19.249181,1.0234408 19.185239,0.95086357 19.117187,0.8828125 19.049136,0.81476143 18.976559,0.7508194 18.902344,0.68945312 18.828128,0.62808685 18.751734,0.56978602 18.671875,0.515625 18.592016,0.46146398 18.508811,0.4116697 18.423828,0.36523438 18.338845,0.31879905 18.251695,0.27647041 18.162109,0.23828125 18.072524,0.20009209 17.980387,0.1661413 17.886719,0.13671875 17.793051,0.1072962 17.698793,0.08068236 17.601562,0.06054687 17.504332,0.04041139 17.404959,0.02595297 17.304687,0.015625 17.204416,0.00529703 17.102793,0 17,0 Z m 0,2 h 9 c 0.07141,0 0.140634,0.00669 0.207031,0.019531 0.0664,0.012838 0.129189,0.032082 0.189453,0.056641 0.06026,0.024559 0.118861,0.054682 0.171875,0.089844 0.05301,0.035161 0.101838,0.074494 0.146485,0.1191407 0.04465,0.044647 0.08398,0.09347 0.11914,0.1464843 0.03516,0.053014 0.06529,0.1116107 0.08984,0.171875 0.02456,0.060264 0.0438,0.1230564 0.05664,0.1894532 C 17.993307,2.8593655 18,2.9285884 18,3 v 9 c 0,0.07141 -0.0067,0.140634 -0.01953,0.207031 -0.01284,0.0664 -0.03208,0.129189 -0.05664,0.189453 -0.02456,0.06027 -0.05468,0.118861 -0.08984,0.171875 -0.03516,0.05302 -0.07449,0.101838 -0.11914,0.146485 -0.04465,0.04465 -0.09347,0.08398 -0.146485,0.11914 -0.05301,0.03516 -0.11161,0.06529 -0.171875,0.08984 -0.06026,0.02456 -0.123056,0.0438 -0.189453,0.05664 C 17.140634,12.993307 17.071412,13 17,13 H 15 V 8 C 15,7.8972065 14.9947,7.7955848 14.98437,7.6953125 14.97404,7.5950402 14.95958,7.4956682 14.93945,7.3984375 14.91932,7.3012065 14.8927,7.2069499 14.86328,7.1132812 14.833859,7.0196126 14.799908,6.9274767 14.761719,6.8378906 14.723529,6.7483046 14.681201,6.6611549 14.634766,6.5761719 14.58833,6.4911888 14.538536,6.4079846 14.484375,6.328125 14.430214,6.2482654 14.371913,6.171872 14.310547,6.0976562 14.24918,6.0234405 14.185239,5.9508638 14.117188,5.8828125 14.049136,5.8147612 13.976559,5.7508196 13.902344,5.6894531 13.828128,5.6280866 13.751735,5.5697862 13.671875,5.515625 13.592015,5.4614638 13.508811,5.4116699 13.423828,5.3652344 13.338845,5.3187989 13.251695,5.2764706 13.162109,5.2382812 13.072523,5.2000919 12.980387,5.1661414 12.886719,5.1367187 12.79305,5.1072961 12.698793,5.0806824 12.601563,5.0605469 12.504332,5.0404113 12.40496,5.025953 12.304688,5.015625 12.204415,5.005297 12.102794,5 12,5 H 7 V 3 C 7,2.928588 7.00669,2.8593655 7.019531,2.7929688 7.032369,2.7265718 7.051613,2.66378 7.076172,2.6035156 7.10073,2.5432516 7.130854,2.4846549 7.166016,2.4316406 7.201177,2.3786266 7.24051,2.3298029 7.2851566,2.2851563 7.3298036,2.2405093 7.3786266,2.2011773 7.431641,2.1660156 7.484655,2.1308546 7.5432517,2.1007306 7.603516,2.0761716 7.66378,2.0516133 7.726572,2.0323693 7.7929687,2.0195313 7.8593655,2.0066932 7.9285884,2 8,2 Z M 3,7 h 2 2 5 c 0.07141,0 0.140634,0.00669 0.207031,0.019531 0.0664,0.012838 0.129189,0.032082 0.189453,0.056641 0.06027,0.024559 0.118861,0.054682 0.171875,0.089844 0.05302,0.035162 0.101838,0.074494 0.146485,0.1191406 0.04465,0.044647 0.08398,0.09347 0.11914,0.1464844 0.03516,0.053015 0.06529,0.1116104 0.08984,0.171875 0.02456,0.060265 0.0438,0.1230561 0.05664,0.1894531 C 12.993307,7.8593658 13,7.9285881 13,8 v 5 2 2 c 0,0.07141 -0.0067,0.140634 -0.01953,0.207031 -0.01284,0.0664 -0.03208,0.129189 -0.05664,0.189453 -0.02456,0.06026 -0.05468,0.118861 -0.08984,0.171875 -0.03516,0.05301 -0.07449,0.101838 -0.11914,0.146485 -0.04465,0.04465 -0.09347,0.08398 -0.146485,0.11914 -0.05301,0.03516 -0.11161,0.06529 -0.171875,0.08984 -0.06026,0.02456 -0.123056,0.0438 -0.189453,0.05664 C 12.140634,17.993307 12.071412,18 12,18 H 3 C 2.928588,18 2.8593655,17.9933 2.7929688,17.98047 2.7265718,17.96763 2.66378,17.94839 2.6035156,17.92383 2.5432516,17.89927 2.4846549,17.86915 2.4316406,17.83399 2.3786266,17.79883 2.3298029,17.7595 2.2851563,17.71485 2.2405093,17.6702 2.2011773,17.62138 2.1660156,17.568365 2.1308546,17.515355 2.1007306,17.456755 2.0761716,17.39649 2.0516133,17.33622 2.0323693,17.273428 2.0195313,17.207031 2.0066932,17.140634 2,17.071412 2,17 V 8 C 2,7.928588 2.00669,7.8593655 2.019531,7.7929687 2.032369,7.7265717 2.051613,7.66378 2.076172,7.6035156 2.100731,7.5432516 2.130854,7.4846549 2.166016,7.4316406 2.201177,7.3786266 2.24051,7.3298029 2.2851567,7.2851562 2.3298037,7.2405092 2.3786267,7.2011772 2.431641,7.1660156 2.484655,7.1308546 2.5432517,7.1007306 2.603516,7.0761716 2.66378,7.0516133 2.726572,7.0323693 2.7929688,7.0195312 2.8593655,7.0066932 2.9285884,7 3,7 Z" />
</svg>