<?xml version="1.0" encoding="UTF-8" standalone="no"?>
<!-- Created with Inkscape (http://www.inkscape.org/) -->

<svg width="31.999998" height="31.999998" viewBox="0 0 8.466666 8.4666661" version="1.1" id="svg1"
   xmlns:inkscape="http://www.inkscape.org/namespaces/inkscape"
   xmlns:sodipodi="http://sodipodi.sourceforge.net/DTD/sodipodi-0.dtd" xmlns:xlink="http://www.w3.org/1999/xlink"
   xmlns="http://www.w3.org/2000/svg" xmlns:svg="http://www.w3.org/2000/svg">
   <sodipodi:namedview id="namedview1" pagecolor="#000000" bordercolor="#000000" borderopacity="0.25"
      inkscape:showpageshadow="2" inkscape:pageopacity="0.0" inkscape:pagecheckerboard="false"
      inkscape:deskcolor="#d1d1d1" inkscape:document-units="px" showgrid="true" showborder="true" borderlayer="true"
      labelstyle="default" shape-rendering="auto">
      <inkscape:grid id="grid1" units="px" originx="0" originy="0" spacingx="0.26458333" spacingy="0.26458333"
         empcolor="#0099e5" empopacity="0.30196078" color="#0099e5" opacity="0.14901961" empspacing="5" dotted="false"
         gridanglex="30" gridanglez="30" visible="true" />
   </sodipodi:namedview>
   <defs id="defs1">
      <linearGradient id="linearGradient47" inkscape:collect="always">
         <stop style="stop-color:#002838;stop-opacity:1;" offset="0" id="stop48" />
         <stop style="stop-color:#00bbff;stop-opacity:1;" offset="1" id="stop47" />
      </linearGradient>
      <linearGradient id="linearGradient45" inkscape:collect="always">
         <stop style="stop-color:#00bbff;stop-opacity:1;" offset="0" id="stop45" />
         <stop style="stop-color:#002938;stop-opacity:1;" offset="1" id="stop46" />
      </linearGradient>
      <inkscape:path-effect effect="fillet_chamfer" id="path-effect44" is_visible="true" lpeversion="1"
         nodesatellites_param="F,0,0,1,0,0,0,1 @ F,0,0,1,0,0,0,1 @ F,0,0,1,0,0,0,1 @ F,0,0,1,0,0,0,1 @ F,0,0,1,0,0,0,1 @ F,0,0,1,0,0,0,1"
         radius="0" unit="px" method="auto" mode="F" chamfer_steps="1" flexible="false" use_knot_distance="true"
         apply_no_radius="true" apply_with_radius="true" only_selected="false" hide_knots="false" />
      <linearGradient id="linearGradient32" inkscape:swatch="gradient">
         <stop style="stop-color:#00ff00;stop-opacity:1;" offset="0" id="stop33" />
         <stop style="stop-color:#47dbff;stop-opacity:1;" offset="1" id="stop34" />
      </linearGradient>
      <linearGradient inkscape:collect="always" xlink:href="#linearGradient45" id="linearGradient46" x1="0" y1="0"
         x2="4.2334657" y2="4.2333331" gradientUnits="userSpaceOnUse" gradientTransform="scale(0.99996865,1)" />
      <linearGradient inkscape:collect="always" xlink:href="#linearGradient47" id="linearGradient48" x1="4.2333331"
         y1="4.2333331" x2="8.4666662" y2="8.4666662" gradientUnits="userSpaceOnUse" spreadMethod="pad" />
   </defs>
   <g inkscape:label="Ebene 1" inkscape:groupmode="layer" id="layer1">
      <path
         d="M 6.1779175,4.2333333 4.2333333,6.1779175 6.1179728,8.062557 c 0.033668,0.033668 0.068828,0.065108 0.1049032,0.094568 0.036075,0.029459 0.072943,0.056915 0.1111043,0.082166 0.038161,0.025251 0.077379,0.048721 0.1173055,0.069763 0.039926,0.021043 0.080586,0.04001 0.1219564,0.056844 0.041371,0.016834 0.083596,0.031299 0.1260905,0.043925 0.042494,0.012625 0.085378,0.023106 0.1286743,0.031523 0.043296,0.00842 0.086963,0.014912 0.1307414,0.01912 0.043778,0.00421 0.087836,0.0062 0.1317749,0.0062 0.043938,0 0.08748,-0.00199 0.1312581,-0.0062 0.043778,-0.00421 0.087445,-0.010703 0.1307414,-0.01912 0.043297,-0.00842 0.08618,-0.018897 0.1286743,-0.031523 C 7.5236911,8.397197 7.5659171,8.382732 7.6072876,8.365898 7.6486586,8.349064 7.6893176,8.330096 7.729244,8.309054 7.769171,8.288012 7.808388,8.264542 7.8465495,8.239291 7.8847105,8.21404 7.9220955,8.186585 7.9581706,8.157125 7.9942456,8.127666 8.0288896,8.096225 8.062557,8.062557 8.096225,8.028889 8.127665,7.994246 8.157125,7.9581706 8.186584,7.9220956 8.21404,7.8847106 8.239291,7.8465495 8.264542,7.8083885 8.288012,7.7691705 8.309054,7.729244 8.330097,7.689318 8.349064,7.648658 8.365898,7.6072876 8.382732,7.5659166 8.397197,7.5236916 8.409823,7.4811971 8.422448,7.4387031 8.432929,7.3958191 8.441346,7.3525228 c 0.00842,-0.043297 0.014912,-0.086964 0.01912,-0.1307414 0.00421,-0.043778 0.0062,-0.08732 0.0062,-0.1312581 0,-0.043938 -0.00199,-0.087997 -0.0062,-0.1317749 C 8.456257,6.9149704 8.4497622,6.8713035 8.4413452,6.828007 8.4329282,6.7847105 8.422448,6.7418268 8.4098226,6.6993327 8.3971971,6.6568386 8.3827316,6.614613 8.3658976,6.5732422 8.3490637,6.5318714 8.330096,6.4912123 8.3090535,6.4512858 8.2880111,6.4113593 8.2645413,6.3721415 8.2392904,6.3339803 8.2140395,6.2958191 8.1865842,6.258951 8.1571248,6.222876 8.1276654,6.1868009 8.0962248,6.1516407 8.062557,6.1179728 Z"
         style="display:inline;fill:url(#linearGradient48);fill-opacity:1;stroke-width:0.264583" id="path45" />
      <path
         d="M 1.3761003,0 C 1.3321636,0 1.288623,0.00199269 1.2448463,0.00620117 1.2010696,0.01040966 1.157404,0.01690448 1.114109,0.02532145 1.070813,0.03373845 1.027932,0.04421862 0.98543866,0.05684408 c -0.0424928,0.01262545 -0.084717,0.02709103 -0.12608653,0.04392496 -0.0413695,0.0168339 -0.0820273,0.0358017 -0.12195256,0.0568441 -0.0399253,0.0210424 -0.0791418,0.0445123 -0.11730182,0.0697632 -0.03816,0.0252509 -0.0755437,0.0527061 -0.1116176,0.0821655 -0.0360739,0.0294594 -0.0707163,0.0609 -0.10438312,0.0945679 -0.0336668,0.0336679 -0.0651065,0.0683114 -0.0945649,0.10438639 -0.0294585,0.036075 -0.0569128,0.0734599 -0.0821629,0.1116211 -0.0252501,0.0381612 -0.0487193,0.077379 -0.069761,0.1173055 -0.0210417,0.0399264 -0.0400089,0.0805856 -0.0568423,0.12195634 C 0.08393248,0.90074984 0.06946735,0.94297546 0.0568423,0.98546956 0.04421723,1.0279637 0.03373736,1.0708474 0.02532066,1.1141439 0.01690395,1.1574404 0.01040933,1.2011073 0.00620098,1.2448853 0.00199263,1.2886632 0,1.332205 0,1.3761434 c 0,0.043938 0.00199263,0.087997 0.00620098,0.1317749 0.00420835,0.043778 0.01070297,0.087445 0.01911968,0.1307414 0.0084167,0.043296 0.01889657,0.08618 0.03152164,0.1286743 0.01262505,0.042494 0.02709018,0.08472 0.04392358,0.1260905 0.0168334,0.041371 0.0358006,0.08203 0.0568423,0.1219564 0.0210417,0.039926 0.0445109,0.079144 0.069761,0.1173055 0.0252501,0.038161 0.0527045,0.075029 0.0821629,0.1111043 0.0294585,0.036075 0.0608981,0.071235 0.0945649,0.1049031 L 2.2886774,4.2333333 4.2332006,2.2887492 2.3486202,0.4041097 C 2.3149534,0.37044183 2.2797942,0.33900122 2.2437204,0.30954183 2.2076465,0.28008244 2.1707795,0.25262721 2.1326195,0.2273763 2.0944594,0.2021254 2.0552429,0.17865554 2.0153177,0.15761312 1.9753925,0.1365707 1.9347345,0.11760298 1.8933651,0.10076904 1.8519956,0.08393511 1.8097714,0.06946953 1.7672786,0.05684408 1.7247858,0.04421862 1.6819035,0.03373842 1.6386083,0.02532145 1.5953132,0.01690448 1.5516476,0.01040966 1.507871,0.00620117 1.4640945,0.00199269 1.4200373,0 1.3761003,0 Z"
         style="display:inline;fill:url(#linearGradient46);stroke-width:0.264579" id="path44" />
      <path style="display:inline;fill:#00bbff;fill-opacity:1;stroke:none;stroke-width:0.264583" id="path42"
         width="8.4666662" height="2.1498954" x="0" y="3.1583855" sodipodi:type="rect" ry="1.0749477"
         transform="matrix(-0.90456341,0.90456341,-0.90456341,-0.90456341,11.89197,4.2333332)"
         d="m 1.0749477,3.1583855 h 6.3167708 c 0.595521,0 1.0749477,0.4794267 1.0749477,1.0749477 0,0.5955211 -0.4794267,1.0749477 -1.0749477,1.0749477 H 1.0749477 C 0.47942668,5.3082809 0,4.8288543 0,4.2333332 0,3.6378122 0.47942668,3.1583855 1.0749477,3.1583855 Z"
         inkscape:path-effect="#path-effect44" />
   </g>
</svg>